<svg width="24" height="24" viewBox="0 0 24 24" fill="none" xmlns="http://www.w3.org/2000/svg">
<path d="M15 22.75H9C3.57 22.75 1.25 20.43 1.25 15V9C1.25 3.57 3.57 1.25 9 1.25H15C20.43 1.25 22.75 3.57 22.75 9V15C22.75 20.43 20.43 22.75 15 22.75ZM9 2.75C4.39 2.75 2.75 4.39 2.75 9V15C2.75 19.61 4.39 21.25 9 21.25H15C19.61 21.25 21.25 19.61 21.25 15V9C21.25 4.39 19.61 2.75 15 2.75H9Z" fill="#4B4B4B"/>
<path d="M9 10.75C7.48 10.75 6.25 9.52 6.25 8C6.25 6.48 7.48 5.25 9 5.25C10.52 5.25 11.75 6.48 11.75 8C11.75 9.52 10.52 10.75 9 10.75ZM9 6.75C8.31 6.75 7.75 7.31 7.75 8C7.75 8.69 8.31 9.25 9 9.25C9.69 9.25 10.25 8.69 10.25 8C10.25 7.31 9.69 6.75 9 6.75Z" fill="#4B4B4B"/>
<path d="M2.6688 19.7001C2.4288 19.7001 2.1888 19.5801 2.0488 19.3701C1.8188 19.0301 1.9088 18.5601 2.2588 18.3301L7.1888 15.0201C8.2688 14.2901 9.7588 14.3801 10.7388 15.2101L11.0688 15.5001C11.5688 15.9301 12.4188 15.9301 12.9088 15.5001L17.0688 11.9301C18.1288 11.0201 19.7988 11.0201 20.8688 11.9301L22.4988 13.3301C22.8088 13.6001 22.8488 14.0701 22.5788 14.3901C22.3088 14.7001 21.8388 14.7401 21.5188 14.4701L19.8888 13.0701C19.3888 12.6401 18.5388 12.6401 18.0388 13.0701L13.8788 16.6401C12.8188 17.5501 11.1488 17.5501 10.0788 16.6401L9.7488 16.3501C9.28879 15.9601 8.5288 15.9201 8.0188 16.2701L3.0888 19.5801C2.9588 19.6601 2.8088 19.7001 2.6688 19.7001Z" fill="#4B4B4B"/>
</svg>
